<?xml version="1.0" encoding="UTF-8" standalone="no"?>
<!-- Created with Inkscape (http://www.inkscape.org/) -->

<svg
   xmlns:dc="http://purl.org/dc/elements/1.1/"
   xmlns:cc="http://creativecommons.org/ns#"
   xmlns:rdf="http://www.w3.org/1999/02/22-rdf-syntax-ns#"
   xmlns:svg="http://www.w3.org/2000/svg"
   xmlns="http://www.w3.org/2000/svg"
   xmlns:sodipodi="http://sodipodi.sourceforge.net/DTD/sodipodi-0.dtd"
   xmlns:inkscape="http://www.inkscape.org/namespaces/inkscape"
   inkscape:version="0.91 r13725"
   version="1.1"
   id="svg2"
   viewBox="0 0 744.09448819 1052.3622047"
   height="297mm"
   width="210mm"
   sodipodi:docname="Logo.svg">
  <defs
     id="defs4">
    <inkscape:path-effect
       effect="skeletal"
       id="path-effect26015-5"
       is_visible="true"
       pattern="m -103.71724,17.110357 0,-11.4368002 c -10.5357,-2.1409 -20.2275,-5.9167 -32.96349,-3.7944 1.74779,1.2514 2.19509,3.3542 2.11629,5.6585 -0.045,1.3263 -1.6578,2.5390002 -1.6734,3.8540002 -0.015,1.2374 1.7873,2.5441 1.6514,3.8011 -0.2265,2.0956 0.3892,4.201 -2.09429,6.3145 12.84839,1.6625 22.57549,-1.9229 32.96349,-4.3969 z"
       copytype="repeated"
       prop_scale="1"
       scale_y_rel="false"
       spacing="0"
       normal_offset="0"
       tang_offset="0"
       prop_units="false"
       vertical_pattern="false"
       fuse_tolerance="0" />
  </defs>
  <sodipodi:namedview
     inkscape:window-maximized="1"
     inkscape:window-y="24"
     inkscape:window-x="61"
     inkscape:window-height="744"
     inkscape:window-width="1305"
     showgrid="false"
     inkscape:current-layer="layer1"
     inkscape:document-units="px"
     inkscape:cy="58.699098"
     inkscape:cx="-1562.1183"
     inkscape:zoom="0.12374369"
     inkscape:pageshadow="2"
     inkscape:pageopacity="0.0"
     borderopacity="1.0"
     bordercolor="#666666"
     pagecolor="#ffffff"
     id="base" />
  <metadata
     id="metadata7">
    <rdf:RDF>
      <cc:Work
         rdf:about="">
        <dc:format>image/svg+xml</dc:format>
        <dc:type
           rdf:resource="http://purl.org/dc/dcmitype/StillImage" />
        <dc:title />
      </cc:Work>
    </rdf:RDF>
  </metadata>
  <g
     inkscape:label="Layer 1"
     inkscape:groupmode="layer"
     id="layer1">
    <g
       id="g8249"
       transform="translate(2602.153,-105.05586)">
      <path
         inkscape:connector-curvature="0"
         id="path8218"
         d="m -2346.9719,459.6723 a 114.15099,114.15099 0 0 0 -48.7493,11.06332 68.760249,68.760249 0 0 0 -16.416,-2.07502 68.760249,68.760249 0 0 0 -68.7591,68.76085 68.760249,68.760249 0 0 0 1.4911,13.8752 81.793235,81.793235 0 0 0 -44.6356,72.86224 81.793235,81.793235 0 0 0 75.8531,81.49601 93.477978,93.477978 0 0 0 92.2274,78.49469 93.477978,93.477978 0 0 0 50.9598,-15.14386 123.13927,123.13927 0 0 0 84.7632,34.01896 123.13927,123.13927 0 0 0 43.0055,-7.83089 62.468462,62.468462 0 0 0 30.2495,7.83089 62.468462,62.468462 0 0 0 59.0097,-42.18177 77.299098,77.299098 0 0 0 19.6362,2.63289 77.299098,77.299098 0 0 0 56.1543,-24.31463 41.346032,41.346032 0 0 0 40.0215,-41.29891 41.346032,41.346032 0 0 0 -12.8776,-29.91583 58.423736,58.423736 0 0 0 4.7878,-23.1155 58.423736,58.423736 0 0 0 -0.1112,-3.12644 42.244857,42.244857 0 0 0 28.8732,-40.01636 42.244857,42.244857 0 0 0 -42.2444,-42.24606 42.244857,42.244857 0 0 0 -25.2844,8.45652 37.301309,37.301309 0 0 0 -28.1953,-12.95067 37.301309,37.301309 0 0 0 -16.621,3.92587 71.906139,71.906139 0 0 0 -5.0381,-11.87491 53.030778,53.030778 0 0 0 8.625,-28.90264 53.030778,53.030778 0 0 0 -53.0295,-53.02958 53.030778,53.030778 0 0 0 -53.0175,52.73935 71.906139,71.906139 0 0 0 -3.0882,1.7709 64.715523,64.715523 0 0 0 -62.541,-48.21914 64.715523,64.715523 0 0 0 -41.5161,15.15603 114.15099,114.15099 0 0 0 -73.533,-26.84151 z"
         style="opacity:1;fill:#ffffff;fill-opacity:1;stroke:#5fbcd3;stroke-width:10;stroke-linecap:round;stroke-linejoin:round;stroke-miterlimit:4;stroke-dasharray:none;stroke-dashoffset:0;stroke-opacity:1" />
      <g
         transform="translate(91.673952,-6.947971)"
         style="fill:#5fbcd3"
         id="g8205">
        <text
           xml:space="preserve"
           style="font-style:normal;font-weight:normal;font-size:40px;line-height:125%;font-family:sans-serif;letter-spacing:0px;word-spacing:0px;fill:#5fbcd3;fill-opacity:1;stroke:none;stroke-width:1px;stroke-linecap:butt;stroke-linejoin:miter;stroke-opacity:1"
           x="-2548.5713"
           y="672.36218"
           id="text4136"
           sodipodi:linespacing="125%"><tspan
             sodipodi:role="line"
             x="-2548.5713"
             y="672.36218"
             style="font-style:normal;font-variant:normal;font-weight:bold;font-stretch:normal;font-size:90px;font-family:'Code Bold';-inkscape-font-specification:'Code Bold, Bold';fill:#5fbcd3"
             id="tspan4211">Bo<tspan
   style="font-size:180px;fill:#5fbcd3"
   id="tspan4223">na</tspan>r</tspan></text>
        <text
           xml:space="preserve"
           style="font-style:normal;font-weight:normal;font-size:50px;line-height:125%;font-family:sans-serif;letter-spacing:0px;word-spacing:0px;fill:#5fbcd3;fill-opacity:1;stroke:none;stroke-width:1px;stroke-linecap:butt;stroke-linejoin:miter;stroke-opacity:1"
           x="-2228.5667"
           y="589.38593"
           id="text4215"
           sodipodi:linespacing="125%"><tspan
             sodipodi:role="line"
             id="tspan4217"
             x="-2228.5667"
             y="589.38593"
             style="font-style:normal;font-variant:normal;font-weight:bold;font-stretch:normal;font-size:50px;font-family:'Code Bold';-inkscape-font-specification:'Code Bold, Bold';fill:#5fbcd3">ga</tspan></text>
        <text
           xml:space="preserve"
           style="font-style:normal;font-variant:normal;font-weight:bold;font-stretch:normal;font-size:50px;line-height:125%;font-family:'Code Bold';-inkscape-font-specification:'Code Bold, Bold';letter-spacing:0px;word-spacing:0px;fill:#5fbcd3;fill-opacity:1;stroke:none;stroke-width:1px;stroke-linecap:butt;stroke-linejoin:miter;stroke-opacity:1"
           x="-2530.1274"
           y="589.21094"
           id="text8173"
           sodipodi:linespacing="125%"><tspan
             sodipodi:role="line"
             id="tspan8175"
             x="-2530.1274"
             y="589.21094">THE</tspan></text>
        <text
           xml:space="preserve"
           style="font-style:normal;font-variant:normal;font-weight:bold;font-stretch:normal;font-size:51.49533463px;line-height:125%;font-family:'Code Bold';-inkscape-font-specification:'Code Bold, Bold';letter-spacing:0px;word-spacing:0px;fill:#5fbcd3;fill-opacity:1;stroke:none;stroke-width:1px;stroke-linecap:butt;stroke-linejoin:miter;stroke-opacity:1"
           x="-2510.7058"
           y="728.53015"
           id="text8173-1"
           sodipodi:linespacing="125%"><tspan
             sodipodi:role="line"
             id="tspan8175-8"
             x="-2510.7058"
             y="728.53015">p r o j e c t</tspan></text>
      </g>
    </g>
  </g>
</svg>
